<?xml version="1.0" standalone="no"?>
<!DOCTYPE svg PUBLIC "-//W3C//DTD SVG 20010904//EN"
 "http://www.w3.org/TR/2001/REC-SVG-20010904/DTD/svg10.dtd">
<svg version="1.0" xmlns="http://www.w3.org/2000/svg"
 width="324.000000pt" height="84.000000pt" viewBox="0 0 324.000000 84.000000"
 preserveAspectRatio="xMidYMid meet">

<g transform="translate(0.000000,84.000000) scale(0.100000,-0.100000)"
fill="#000000" stroke="none">
<path d="M1305 683 l-40 -4 7 -82 c3 -45 7 -151 7 -234 l1 -153 35 0 c19 0 35
-5 35 -11 0 -7 7 -8 18 -4 26 11 52 12 95 5 21 -4 56 -3 77 2 41 11 50 26 50
86 l0 33 -109 -5 -108 -5 -7 76 c-10 125 -7 273 5 273 8 0 8 5 -1 15 -7 8 -15
14 -19 13 -3 -1 -24 -3 -46 -5z m265 -389 c0 -8 -5 -12 -10 -9 -6 4 -19 1 -28
-6 -13 -11 -12 -8 2 9 22 26 36 28 36 6z m-180 -25 c-7 -11 -14 -18 -17 -15
-8 8 5 36 17 36 7 0 7 -6 0 -21z m-58 -41 c-9 -9 -15 -9 -24 0 -9 9 -7 12 12
12 19 0 21 -3 12 -12z"/>
<path d="M168 613 c-6 -84 -3 -402 4 -408 3 -3 23 -3 46 1 l40 6 -6 125 c-4
102 -3 125 8 121 14 -4 122 -206 132 -246 5 -19 13 -22 53 -22 l48 0 -7 52
c-3 29 -6 135 -6 236 l0 182 -40 0 -40 0 -1 -67 c-1 -38 -4 -95 -8 -128 -6
-60 -6 -60 -23 -35 -37 56 -128 213 -128 221 0 5 -6 9 -12 9 -7 0 -23 3 -35 6
-19 5 -21 2 -25 -53z m295 -38 c-3 -9 -8 -14 -10 -11 -3 3 -2 9 2 15 9 16 15
13 8 -4z m-173 -40 c17 -21 5 -31 -15 -12 -8 9 -15 18 -15 21 0 11 18 6 30 -9z
m-55 -184 c3 -5 1 -12 -5 -16 -5 -3 -10 1 -10 9 0 18 6 21 15 7z m-31 -107 c9
-3 13 -10 10 -15 -8 -14 -21 -11 -28 6 -6 17 -4 18 18 9z m33 -16 c-3 -8 -6
-5 -6 6 -1 11 2 17 5 13 3 -3 4 -12 1 -19z m233 -18 c0 -5 -7 -10 -15 -10 -8
0 -15 5 -15 10 0 6 7 10 15 10 8 0 15 -4 15 -10z"/>
<path d="M1000 617 c0 -39 -25 -67 -59 -67 -20 0 -22 -4 -19 -42 l3 -43 38 3
37 4 1 -59 c0 -32 5 -85 10 -118 5 -33 10 -70 12 -83 1 -12 5 -22 10 -22 4 0
19 0 34 0 l26 0 -6 145 -7 145 54 0 c57 0 90 20 68 42 -6 6 -8 16 -5 24 4 10
-6 12 -44 8 -60 -6 -73 3 -80 55 -5 39 -7 41 -39 41 -32 0 -34 -2 -34 -33z
m55 -7 c-3 -5 -11 -10 -16 -10 -6 0 -7 5 -4 10 3 6 11 10 16 10 6 0 7 -4 4
-10z m2 -192 c0 -13 -1 -17 -4 -9 -5 11 -7 11 -14 0 -4 -7 -12 -10 -16 -5 -6
5 21 36 32 36 0 0 1 -10 2 -22z"/>
<path d="M2297 586 c-2 -7 -32 -11 -73 -11 -60 0 -74 -4 -106 -29 -53 -39 -93
-125 -92 -196 0 -74 19 -109 76 -138 42 -21 51 -23 83 -12 48 16 101 63 110
97 10 40 25 10 25 -50 0 -47 1 -48 28 -45 l27 3 -2 120 c-2 100 -8 231 -12
256 -2 12 -60 16 -64 5z m-7 -56 c0 -5 -5 -10 -11 -10 -5 0 -7 5 -4 10 3 6 8
10 11 10 2 0 4 -4 4 -10z m-22 -22 c30 -30 -2 -107 -76 -185 -35 -37 -43 -39
-76 -18 -21 14 -23 20 -15 62 9 48 33 96 66 131 20 23 82 29 101 10z m-185
-165 c-2 -32 -7 -64 -9 -72 -9 -27 -23 3 -28 59 -3 37 -3 44 2 20 l8 -35 7 43
c11 63 26 51 20 -15z m264 -5 c-9 -32 -13 -37 -15 -21 -3 19 13 63 22 63 2 0
-1 -19 -7 -42z m-116 -21 c-8 -8 -11 -7 -11 4 0 20 13 34 18 19 3 -7 -1 -17
-7 -23z m-71 -99 c0 -11 -28 -10 -35 1 -3 6 4 9 15 8 11 -1 20 -5 20 -9z"/>
<path d="M1785 571 c-46 -11 -72 -28 -99 -64 -46 -61 -60 -170 -30 -233 23
-49 61 -72 141 -86 63 -10 73 -10 108 8 21 10 47 31 58 45 19 26 19 26 -8 53
l-26 27 -30 -26 c-60 -50 -189 -32 -189 26 0 10 4 20 8 23 5 3 62 6 126 7 82
2 119 6 123 15 6 17 -27 146 -43 161 -7 7 -17 13 -23 13 -6 0 -11 4 -11 9 0 5
-11 12 -24 15 -13 3 -30 8 -38 10 -7 2 -26 1 -43 -3z m58 -72 c28 -15 37 -28
37 -56 0 -26 -15 -31 -103 -35 l-59 -3 6 29 c10 47 31 65 89 75 5 0 18 -4 30
-10z m-150 -35 c-10 -19 -19 -31 -21 -24 -4 10 24 60 33 60 3 0 -3 -16 -12
-36z m233 8 c1 -7 0 -8 -3 -2 -3 8 -9 7 -19 -1 -8 -6 -14 -7 -14 -2 0 24 31
28 36 5z m-245 -149 c10 -11 10 -14 2 -9 -8 4 -13 2 -13 -4 0 -6 -4 -8 -10 -5
-12 8 -13 35 -1 35 5 0 15 -8 22 -17z m269 -53 c0 -5 -7 -10 -16 -10 -8 0 -12
5 -9 10 3 6 10 10 16 10 5 0 9 -4 9 -10z"/>
<path d="M554 547 l-27 -24 31 -44 c17 -24 44 -61 59 -82 19 -27 24 -43 17
-52 -5 -8 -28 -41 -51 -74 -44 -63 -46 -78 -13 -99 26 -16 54 3 92 65 29 45
58 57 58 23 0 -11 5 -20 12 -20 7 0 27 -14 45 -32 33 -32 34 -32 60 -16 15 9
29 21 31 26 1 5 -22 39 -53 74 -30 36 -55 69 -55 73 0 4 20 39 45 76 l46 69
-23 30 c-12 17 -25 30 -29 30 -4 0 -28 -28 -54 -62 -26 -35 -52 -63 -59 -63
-6 0 -15 10 -21 23 -5 12 -14 22 -18 22 -14 0 -52 53 -49 67 4 20 -14 15 -44
-10z m219 -57 c-3 -11 -9 -20 -14 -20 -11 0 -11 3 -3 24 9 23 23 20 17 -4z
m-103 -59 c0 -12 -20 -25 -27 -18 -7 7 6 27 18 27 5 0 9 -4 9 -9z m26 -57 c-4
-9 -9 -15 -11 -12 -3 3 -3 13 1 22 4 9 9 15 11 12 3 -3 3 -13 -1 -22z m-16
-70 c0 -8 -9 -22 -20 -31 -11 -10 -20 -22 -20 -28 0 -16 -47 -71 -55 -64 -3 4
2 15 13 25 11 11 23 30 26 44 16 58 28 79 42 73 8 -3 14 -11 14 -19z m54 1
c-4 -8 -10 -15 -15 -15 -4 0 -6 7 -3 15 4 8 10 15 15 15 4 0 6 -7 3 -15z m56
-11 c0 -8 -4 -12 -10 -9 -5 3 -10 10 -10 16 0 5 5 9 10 9 6 0 10 -7 10 -16z
m17 -46 c-3 -8 -6 -5 -6 6 -1 11 2 17 5 13 3 -3 4 -12 1 -19z"/>
<path d="M2546 540 c-23 -21 -37 -27 -41 -19 -4 6 -1 15 6 20 26 16 -2 22 -42
9 l-42 -14 8 -111 c5 -60 9 -143 10 -183 1 -40 4 -75 7 -77 5 -6 36 -9 67 -7
l24 2 -6 108 c-8 120 2 173 36 197 20 15 23 14 36 -5 7 -11 20 -20 27 -20 9 0
14 -12 14 -35 0 -34 1 -35 28 -29 40 10 40 9 31 64 -10 66 -34 104 -73 118
-46 17 -51 16 -90 -18z m-56 -50 c0 -5 -5 -10 -11 -10 -5 0 -7 5 -4 10 3 6 8
10 11 10 2 0 4 -4 4 -10z m50 -30 c0 -5 -5 -10 -11 -10 -5 0 -7 5 -4 10 3 6 8
10 11 10 2 0 4 -4 4 -10z m-73 -27 c-15 -16 -17 -16 -17 -1 0 9 6 18 13 21 20
7 22 -2 4 -20z m42 -187 c-9 -8 -10 -8 -5 1 3 6 2 15 -4 18 -8 5 -7 12 2 23
12 14 13 13 16 -8 2 -12 -2 -27 -9 -34z"/>
<path d="M2774 562 c-12 -8 -11 -347 1 -374 5 -13 14 -16 34 -11 35 8 41 19
42 83 0 30 4 78 7 105 6 42 11 51 30 53 12 2 22 -2 22 -8 0 -8 10 -9 29 -5 27
6 30 3 45 -41 9 -28 16 -80 16 -125 0 -85 8 -95 62 -75 l28 10 -6 106 c-5 122
-20 205 -41 237 -13 19 -24 23 -65 23 -27 0 -62 -7 -78 -15 -29 -15 -48 -6
-35 15 3 6 0 12 -7 14 -32 10 -75 14 -84 8z m26 -16 c0 -3 -4 -8 -10 -11 -5
-3 -10 -1 -10 4 0 6 5 11 10 11 6 0 10 -2 10 -4z m50 -16 c0 -5 -5 -10 -11
-10 -5 0 -7 5 -4 10 3 6 8 10 11 10 2 0 4 -4 4 -10z m160 -10 c12 -8 9 -15
-20 -42 -19 -18 -24 -21 -12 -7 29 33 28 39 -5 40 -25 0 -26 1 -8 9 26 11 27
11 45 0z m-160 -69 c0 -5 -7 -12 -16 -15 -14 -5 -15 -4 -4 9 14 17 20 19 20 6z
m210 -55 c0 -3 -4 -8 -10 -11 -5 -3 -10 -1 -10 4 0 6 5 11 10 11 6 0 10 -2 10
-4z m-220 -126 c0 -5 -4 -10 -10 -10 -5 0 -10 5 -10 10 0 6 5 10 10 10 6 0 10
-4 10 -10z m226 -47 c-10 -10 -19 5 -10 18 6 11 8 11 12 0 2 -7 1 -15 -2 -18z
m-240 -20 c-11 -11 -17 4 -9 23 7 18 8 18 11 1 2 -10 1 -21 -2 -24z"/>
</g>
</svg>
